<svg xmlns="http://www.w3.org/2000/svg" viewBox="0 0 100 100" aria-hidden="true">
  <circle cx="50" cy="50" r="50" fill="#0a1f5e"/>
  <g fill="#ffffff">
    <path d="M50 17 L51.5 21 L55.5 21 L52.3 23.5 L53.5 27.5 L50 25 L46.5 27.5 L47.7 23.5 L44.5 21 L48.5 21 Z"/>
    <path d="M28 40 L28 52 L32 52 L34 44 L38 54 L42 42 L46 56 L50 40 L54 56 L58 42 L62 54 L66 44 L68 52 L72 52 L72 40 L68 46 L64 38 L58 48 L54 36 L50 44 L46 36 L42 48 L36 38 L32 46 Z"/>
    <ellipse cx="50" cy="62" rx="13" ry="11" fill="none" stroke="#ffffff" stroke-width="3"/>
    <path d="M58 69 L66 77" stroke="#ffffff" stroke-width="3" stroke-linecap="round"/>
    <rect x="28" y="78" width="44" height="5" rx="1"/>
  </g>
</svg>
